<?xml version="1.0" standalone="no"?><!DOCTYPE svg PUBLIC "-//W3C//DTD SVG 1.1//EN" "http://www.w3.org/Graphics/SVG/1.1/DTD/svg11.dtd"><svg class="icon" width="200px" height="182.69px" viewBox="0 0 1121 1024" version="1.1" xmlns="http://www.w3.org/2000/svg"><path d="M609.62322 512m-507.508772 0a507.508772 507.508772 0 1 0 1015.017544 0 507.508772 507.508772 0 1 0-1015.017544 0Z" fill="#93CCEF" /><path d="M609.62322 1024c-282.318596 0-512-229.685895-512-512 0-282.318596 229.685895-512 512-512s512 229.681404 512 512c0 282.314105-229.681404 512-512 512z m0-1015.017544c-277.364772 0-503.017544 225.652772-503.017544 503.017544s225.652772 503.017544 503.017544 503.017544 503.017544-225.652772 503.017544-503.017544-225.652772-503.017544-503.017544-503.017544z" fill="#358EC2" /><path d="M439.369746 703.389193s31.321825 8.241404 102.557193-22.81993c71.248842-31.065825 459.07986-232.861193 459.07986-232.861193s109.927298-55.251088 12.391298-77.985684c-44.06793-10.280421-122.911439 19.375158-189.359158 50.768842-0.453614-1.275509-17.439439 7.536281-52.974035-0.902737l-235.102316-37.856561c-7.163509-0.902737-18.50386 0.552421-25.204772 3.229193l-9.570807 3.831017c-6.709895 2.681263-6.759298 7.20393-0.130245 10.05586l169.242947 84.677614c9.808842 3.067509 20.736 8.820772 9.013895 16.716351-34.48814 27.854596-131.561544 87.33193-231.783299 136.111158-12.184702 10.069333-29.673544 1.31593-32.741052 0.956631l-45.069474-12.368842c-7.168-0.844351-17.111579 2.658807-22.08786 7.769825-4.985263 5.115509-4.302596 12.8 1.513544 17.08014l39.805755 29.201965c-0.004491 0 36.149895 23.444211 50.418526 24.396351z" fill="#FFFFFF" /><path d="M148.764834 782.839018c-69.793684 0-119.174737-22.352842-139.29993-63.15565-24.364912-49.394526-1.122807-115.851228 63.766456-182.325894a15.723789 15.723789 0 0 1 22.496561 21.962105C41.527781 614.844632 19.821676 669.597193 37.665325 705.778526c14.645895 29.691509 56.517614 46.196772 114.782316 45.599439 63.249965-0.776982 138.262456-21.018947 211.222456-56.993684a15.719298 15.719298 0 1 1 13.904842 28.19593c-77.078456 38.013754-156.89207 59.409965-224.741053 60.23635-1.365333 0.013474-2.721684 0.022456-4.069052 0.022457z" fill="#E3007F" /></svg>